# xmcd
#
# Track frame offsets: 
#        182
#        17527
#        44297
#        68172
#
# Disc length: 1204 seconds
#
# Revision: 0
# Processed by: cddbd v1.5.2PL0 Copyright (c) Steve Scherf et al.
# Submitted via: ExactAudioCopy v1.0b1
#
DISCID=2904b204
DTITLE=Black Baron - Girl, I Love You So CDM
DYEAR=1994
DGENRE=Eurodance
TTITLE0=Girl, I Love You So (Radio Edit)
TTITLE1=Girl, I Love You So (Trime'n DELgado Club Mix)
TTITLE2=Girl, I Love You So (77-Bump Mix)
TTITLE3=Girl, I Love You So (Heart-Alarm-Mix)
EXTD=
EXTT0=
EXTT1=
EXTT2=
EXTT3=
PLAYORDER=
